<svg xmlns="http://www.w3.org/2000/svg" viewBox="0 0 15.58 15.58"><defs><style>.cls-1{fill:none;stroke:#000;stroke-linecap:round;stroke-miterlimit:10;}</style></defs><title>filter</title><g id="Camada_2" data-name="Camada 2"><g id="Camada_1-2" data-name="Camada 1"><path class="cls-1" d="M13.62.5V9.05"/><path class="cls-1" d="M13.62,12.07v3"/><path class="cls-1" d="M13.62,12a1.46,1.46,0,1,0-1.46-1.46A1.46,1.46,0,0,0,13.62,12Z"/><path class="cls-1" d="M7.79.5V6.62"/><path class="cls-1" d="M7.79,9.64v5.44"/><path class="cls-1" d="M7.79,9.59A1.46,1.46,0,1,0,6.33,8.13,1.47,1.47,0,0,0,7.79,9.59Z"/><path class="cls-1" d="M2,.5V4.19"/><path class="cls-1" d="M2,7.21v7.87"/><path class="cls-1" d="M2,7.16A1.46,1.46,0,1,0,.5,5.7,1.46,1.46,0,0,0,2,7.16Z"/></g></g></svg>