<svg xmlns="http://www.w3.org/2000/svg" width="24.408" height="24.408" viewBox="0 0 24.408 24.408">
  <path id="Caminho_184" data-name="Caminho 184" d="M472.113,104.313a1.433,1.433,0,0,1,.994,1.392v.4a1.5,1.5,0,0,1-.994,1.392l-1.459.53a1.391,1.391,0,0,0-.862.862,2.354,2.354,0,0,1-.265.6,1.262,1.262,0,0,0,.066,1.193l.663,1.392a1.406,1.406,0,0,1-.265,1.657l-.265.265a1.422,1.422,0,0,1-1.657.265l-1.392-.663a1.512,1.512,0,0,0-1.193-.066,2.355,2.355,0,0,0-.6.265,1.391,1.391,0,0,0-.862.862l-.53,1.458a1.433,1.433,0,0,1-1.392.994h-.4a1.5,1.5,0,0,1-1.392-.994l-.53-1.458a1.391,1.391,0,0,0-.862-.862,2.355,2.355,0,0,1-.6-.265,1.262,1.262,0,0,0-1.193.066l-1.392.663a1.406,1.406,0,0,1-1.657-.265l-.265-.265a1.422,1.422,0,0,1-.265-1.657l.663-1.392a1.512,1.512,0,0,0,.066-1.193,2.353,2.353,0,0,0-.265-.6,1.391,1.391,0,0,0-.862-.862l-1.458-.53a1.433,1.433,0,0,1-.994-1.392v-.4a1.5,1.5,0,0,1,.994-1.392l1.458-.53a1.391,1.391,0,0,0,.862-.862,2.355,2.355,0,0,1,.265-.6,1.262,1.262,0,0,0-.066-1.193l-.663-1.392a1.406,1.406,0,0,1,.265-1.657l.265-.265a1.422,1.422,0,0,1,1.657-.265l1.392.663a1.512,1.512,0,0,0,1.193.066,2.354,2.354,0,0,0,.6-.265,1.391,1.391,0,0,0,.862-.862l.53-1.458a1.433,1.433,0,0,1,1.392-.994h.4a1.5,1.5,0,0,1,1.392.994l.53,1.458a1.391,1.391,0,0,0,.862.862,2.354,2.354,0,0,1,.6.265,1.262,1.262,0,0,0,1.193-.066l1.392-.663a1.406,1.406,0,0,1,1.657.265l.265.265a1.422,1.422,0,0,1,.265,1.657l-.663,1.392a1.512,1.512,0,0,0-.066,1.193,2.356,2.356,0,0,0,.265.6,1.391,1.391,0,0,0,.862.862Zm-10.276-1.724a3.11,3.11,0,0,1,2.32.994,3.216,3.216,0,0,1,.994,2.32,3.11,3.11,0,0,1-.994,2.32,3.216,3.216,0,0,1-2.32.994,3.11,3.11,0,0,1-2.32-.994,3.216,3.216,0,0,1-.994-2.32,3.4,3.4,0,0,1,3.315-3.315Z" transform="translate(-449.7 -93.7)" fill="none" stroke="#000" stroke-miterlimit="10" stroke-width="2"/>
</svg>
