<svg xmlns="http://www.w3.org/2000/svg" viewBox="0 0 56.69 56.69"><defs><style>.cls-1{fill:none;}.cls-2{fill:#38b6ff;}</style></defs><title>Ativo 6</title><g id="Camada_2" data-name="Camada 2"><g id="Camada_1-2" data-name="Camada 1"><rect class="cls-1" width="56.69" height="56.69"/><path class="cls-2" d="M28.35,0A28.24,28.24,0,0,0,4.19,42.84c1.21,2-5.37,12-3.72,13.62s11.38-5.21,13.3-4.05A28.23,28.23,0,1,0,28.35,0ZM21.87,35.2H16.8V32.47h5.07Zm0-6.85H16.8V25.62h5.07Zm0-6.85H16.8V18.77h5.07Zm9,20.55H25.81V39.32h5.07Zm0-6.85H25.81V32.47h5.07Zm0-6.85H25.81V25.62h5.07Zm0-6.85H25.81V18.77h5.07Zm9.4,13.7H35.21V32.47h5.07Zm0-6.85H35.21V25.62h5.07Zm0-6.85H35.21V18.77h5.07Z"/></g></g></svg>