<svg xmlns="http://www.w3.org/2000/svg" width="26.629" height="24.408" viewBox="0 0 26.629 24.408">
  <g id="Grupo_165" data-name="Grupo 165" transform="translate(-161.091 -166.7)">
    <path id="Caminho_54" data-name="Caminho 54" d="M166.9,184.8v9.593a.809.809,0,0,0,.84.84h3.991a.628.628,0,0,0,.63-.63v-5.252a1.346,1.346,0,0,1,1.4-1.33h3.991a1.392,1.392,0,0,1,1.4,1.33v5.322a.552.552,0,0,0,.56.56h4.131a.777.777,0,0,0,.77-.77V184.8" transform="translate(-1.319 -5.126)" fill="none" stroke="#000" stroke-linecap="round" stroke-linejoin="round" stroke-miterlimit="10" stroke-width="2"/>
    <path id="Caminho_55" data-name="Caminho 55" d="M186.308,177.994,174.684,167.7,162.5,177.994" fill="none" stroke="#000" stroke-linecap="round" stroke-linejoin="round" stroke-miterlimit="10" stroke-width="2"/>
  </g>
</svg>
