<svg xmlns="http://www.w3.org/2000/svg" viewBox="0 0 56.69 56.69"><defs><style>.cls-1{fill:none;}.cls-2{fill:#fff;}.cls-3{fill:#38b6ff;}</style></defs><title>Ativo 5</title><g id="Camada_2" data-name="Camada 2"><g id="Camada_1-2" data-name="Camada 1"><rect class="cls-1" width="56.69" height="56.69"/><path class="cls-2" d="M35.16,56.69H6.57A6.74,6.74,0,0,1,0,49.8V6.89A6.74,6.74,0,0,1,6.57,0H35.16a6.74,6.74,0,0,1,6.57,6.89V49.8A6.74,6.74,0,0,1,35.16,56.69ZM6.57,3.52A3.3,3.3,0,0,0,3.36,6.89V49.8a3.3,3.3,0,0,0,3.21,3.37H35.16a3.3,3.3,0,0,0,3.21-3.37V6.89a3.3,3.3,0,0,0-3.21-3.37Z"/><path class="cls-3" d="M11.14,17.42,8.59,14.59,10,13.2l1.19,1.32,5-5.31,1.37,1.41Zm4.28-2.19c0-.14,0-.28,0-.41L13.49,15c0,.08,0,.17,0,.25a3.11,3.11,0,0,1-3,3.18,3.18,3.18,0,0,1,0-6.35,2.46,2.46,0,0,1,1.66.5l1.39-1.39a4.34,4.34,0,0,0-3-1.13,5.08,5.08,0,0,0-5,5.19,5.08,5.08,0,0,0,5,5.19A5.08,5.08,0,0,0,15.42,15.23Zm20.79,0H17.5V13.35H36.21Zm0,4.19H24.53V21.3H36.21Z"/><path class="cls-3" d="M11.14,30.94,8.59,28.11,10,26.73,11.17,28l5-5.31,1.37,1.41Zm4.28-2.18c0-.15,0-.28,0-.42l-1.91.16c0,.08,0,.17,0,.26a3.11,3.11,0,0,1-3,3.17,3.18,3.18,0,0,1,0-6.35,2.51,2.51,0,0,1,1.66.5l1.39-1.39a4.32,4.32,0,0,0-3-1.12,5.19,5.19,0,0,0,0,10.37A5.07,5.07,0,0,0,15.42,28.76Zm20.79,0H17.5V26.87H36.21Zm0,4.18H24.53v1.88H36.21Z"/><path class="cls-3" d="M10.47,46.63a5.2,5.2,0,0,1,0-10.38,5.2,5.2,0,0,1,0,10.38Zm0-8.37a3.18,3.18,0,0,0,0,6.35,3.18,3.18,0,0,0,0-6.35Zm25.74,3.16H17.5V39.53H36.21Zm0,4.18H24.53v1.89H36.21Z"/><path class="cls-3" d="M49.3,16.29l4.77.56L51.6,40.44a.77.77,0,0,1-.12.35l-4.6-.55a.9.9,0,0,1-.05-.37L49.3,16.29m.29-9.08a1.5,1.5,0,0,0-1.49,1.4l-.3,2.84,8.59,1,.29-2.85A1.53,1.53,0,0,0,55.39,7.9l-5.68-.68ZM47.6,14,44.93,39.64A3,3,0,0,0,45.08,41l2.73,7.75a.56.56,0,0,0,.52.39.55.55,0,0,0,.49-.27l4.27-6.92a2.94,2.94,0,0,0,.42-1.26L56.19,15,47.6,14Z"/></g></g></svg>