<?xml version="1.0" encoding="utf-8"?>
<!-- Generator: Adobe Illustrator 23.0.2, SVG Export Plug-In . SVG Version: 6.00 Build 0)  -->
<svg version="1.1" id="Camada_1" xmlns="http://www.w3.org/2000/svg" xmlns:xlink="http://www.w3.org/1999/xlink" x="0px" y="0px"
	 viewBox="0 0 527 427.1" style="enable-background:new 0 0 527 427.1;" xml:space="preserve">
<style type="text/css">
	.st0{fill:#EAE8E9;}
	.st1{clip-path:url(#SVGID_2_);}
	.st2{fill:url(#SVGID_3_);}
	.st3{fill:url(#SVGID_4_);}
	.st4{fill:#190C0C;}
	.st5{opacity:0.8;fill:#97442C;enable-background:new    ;}
	.st6{fill:#0849BC;}
	.st7{fill:url(#SVGID_5_);}
	.st8{fill:url(#SVGID_6_);}
	.st9{fill:#FFFFFD;}
	.st10{fill:#140B0A;}
	.st11{fill:#6B362C;}
	.st12{fill:url(#SVGID_7_);}
	.st13{fill:#EEAC94;}
	.st14{fill:url(#SVGID_8_);}
	.st15{fill:#97442C;}
	.st16{opacity:0.5;fill:#97442C;enable-background:new    ;}
	.st17{fill:none;stroke:#4E958F;stroke-width:3;stroke-miterlimit:10;}
	.st18{fill:none;stroke:#FFD41D;stroke-width:3;stroke-miterlimit:10;}
	.st19{fill:none;stroke:#395AFF;stroke-width:3;stroke-miterlimit:10;}
	.st20{fill:none;stroke:#FA494F;stroke-width:3;stroke-linecap:round;stroke-miterlimit:10;}
	.st21{fill:none;stroke:#395AFF;stroke-width:3;stroke-linecap:round;stroke-linejoin:round;}
	.st22{fill:none;stroke:#B47EBC;stroke-width:3;stroke-linecap:round;stroke-linejoin:round;}
</style>
<title>nothing</title>
<g>
	<g id="Camada_1-2">
		<path class="st0" d="M255.7,389.9c11.9,0.7,39.1,2.1,72.5,2.7c30.8,0.5,67,0.5,100.5-4.5c24.8-6.8,45.8-17.7,62.3-36.1
			c8-9,14.6-19.1,19.7-30.1c6.5-17.7,12-30.4,14.8-41.2c3.4-14.6,1.7-38.2-11.3-52.8c-6.6-6.1-14.3-14.7-24.7-23.9
			c-7.9-7-17.8-13.2-27.8-25.4c-14-18.8-13.2-35.8-11.4-52.3c0.7-6,2.7-17.7,2.2-28.1c-0.4-6.7-1.8-13.3-4-19.6
			c-2.6-7.9-7.7-19.6-16.2-28c-8-8-15.5-15.8-23.5-21c-12.9-8.3-26.3-12-39.6-15.4c-38.5-10.1-73.7-0.7-78.1-0.2
			c-2.4,0.3-30,6.3-68.2,34.6c-12.8,9.5-18.2,21.1-29.7,35.6c-1.8,2.3-3.7,4.6-5.7,6.9c-15.4,18-35,31.9-57,40.5l-2.3,0.9
			c-34.2,12.4-79.7,11.1-84.1,76.4c-3,41.1,17,87.4,64.6,132.8C164.7,390.3,220.5,387.7,255.7,389.9z"/>
		<g>
			<defs>
				<path id="SVGID_1_" d="M255.7,389.9c11.9,0.7,39.1,2.1,72.5,2.7c30.8,0.5,67,0.5,100.5-4.5c24.8-6.8,45.8-17.7,62.3-36.1
					c8-9,14.6-19.1,19.7-30.1c6.5-17.7,12-30.4,14.8-41.2c3.4-14.6,1.7-38.2-11.3-52.8c-6.6-6.1-14.3-14.7-24.7-23.9
					c-7.9-7-17.8-13.2-27.8-25.4c-14-18.8-13.2-35.8-11.4-52.3c0.7-6,2.7-17.7,2.2-28.1c-0.4-6.7-1.8-13.3-4-19.6
					c-2.6-7.9-7.7-19.6-16.2-28c-8-8-15.5-15.8-23.5-21c-12.9-8.3-26.3-12-39.6-15.4c-38.5-10.1-73.7-0.7-78.1-0.2
					c-2.4,0.3-30,6.3-68.2,34.6c-12.8,9.5-18.2,21.1-29.7,35.6c-1.8,2.3-3.7,4.6-5.7,6.9c-15.4,18-35,31.9-57,40.5l-2.3,0.9
					c-34.2,12.4-79.7,11.1-84.1,76.4c-3,41.1,17,87.4,64.6,132.8C164.7,390.3,220.5,387.7,255.7,389.9z"/>
			</defs>
			<clipPath id="SVGID_2_">
				<use xlink:href="#SVGID_1_"  style="overflow:visible;"/>
			</clipPath>
			<g class="st1">
				
					<linearGradient id="SVGID_3_" gradientUnits="userSpaceOnUse" x1="157.89" y1="252.3494" x2="389.43" y2="252.3494" gradientTransform="matrix(1 0 0 -1 0 427.89)">
					<stop  offset="0" style="stop-color:#E07541"/>
					<stop  offset="1" style="stop-color:#EEAC94"/>
				</linearGradient>
				<path class="st2" d="M308.7,227.8l2.6,25.7l1.1,1.9c-7.1,8.5-14,15.7-27,16.1c-11.6,0.4-19-8.6-24.7-16.4
					c-3.1-4.2-6.6-8.1-10.5-11.6c-0.4-16.9-4-33.5-10.4-49.1l-7.4-3.2c-5.6-2.4-10.5-6.2-14.1-11.1c-1.2-1.6-2.2-3.5-3-5.4
					c-4.8-11.3-1.2-14.4-1.2-14.4l-1.8-6.1c-4.6-19.8-8.3-42.7,13.9-60.9s53.4-12.7,69.4-13.8s38.2,18.2,33.8,33.6
					c-3.2,11.1-8.5,11.7-8.5,11.7s10.7,18.8,9.1,57.6C329.2,199.8,321.5,216.1,308.7,227.8z"/>
				
					<linearGradient id="SVGID_4_" gradientUnits="userSpaceOnUse" x1="208.9384" y1="304.7109" x2="330.0575" y2="304.7109" gradientTransform="matrix(1 0 0 -1 0 427.89)">
					<stop  offset="0" style="stop-color:#301917"/>
					<stop  offset="1" style="stop-color:#6B362C"/>
				</linearGradient>
				<path class="st3" d="M329.5,113.2c-0.8,3.3-2.3,6.4-4.5,9c-1,1.2-2.2,2.1-3.7,2.6h-0.1h-0.1H321c0,0-2,4.9-23.5,1.4
					c-3.7-0.6-8.9-1.6-13.8-2.4c-3.1-0.6-5.5-1.6-7.9-2c-2-0.3-4.1-0.3-6.1,0c-1.6,0.5-3.1,1.2-4.5,2c-2.6,2.3-6.1,9.5-7.9,15.6
					s-8.9,10.3-9.5,16.2c-0.6,5.6-6.8,10.8-7.6,11.4l0,0c0,0,0,0-0.1,0.1l0,0c0.6-4.8-2-6.5-2-6.5c-4.4-6.4-9.3-7.4-13.2-7
					c-1.8,0.2-3.5,0.6-5.2,1.1c-4,1-5.5,5.7-5.5,5.7l-0.2-0.8l-1.6-5.4c-0.1-0.7-0.3-1.4-0.5-2.2c-3.6-15.9-6-33.7,5.3-49.3
					c2.6-3.5,5.6-6.7,9-9.5c22.1-18.2,53.4-12.7,69.4-13.8S333.9,97.8,329.5,113.2z"/>
				<path class="st4" d="M245.4,211.1c0,0,0.6,2,0.8,3.3c-10.2-12.1-26-33-32.1-53.9l-0.2-0.8c-0.6-1.8-1.1-3.5-1.6-5.4
					c-0.1-0.7-0.3-1.4-0.5-2.2c-3.6-15.9-6-33.7,5.3-49.3l0.1,7.1c0,0,0.2,22.8,7.6,43.6c0.7,2,1.5,3.9,2.3,5.8
					c4.3,9.8,7.4,23,12.9,35.5c1.4,3.8,2.7,7.5,3.6,10.3C244.9,208.9,245.4,211.1,245.4,211.1z"/>
				<path class="st5" d="M309,230.3c-3,3.1-6.7,5.5-10.8,7.1c-2,0.8-4.2,1.1-6.4,0.9c-3-0.4-5.9-1.4-8.6-2.9
					c-7.1-4.1-19.8-12.7-19.8-12.7s-9.4-7.7-9.4,3.8s1.1,22.1,1.1,22.1l-5-5.6c-0.3-9.6-1.6-19.2-3.9-28.5
					c-1.6-6.8-3.8-13.4-6.5-19.8c0.6,0.7,18.2,22.5,34.8,31.7c2.1,1.2,4.1,2.4,5.9,3.5c4.9,2.2,8.5,3.4,11.8,3.5
					c8.4,0.2,12.4-1.9,16.4-5.4L309,230.3z"/>
				<path class="st6" d="M322.9,243.5c-12.5,12.3-18.5,27.4-37.5,28.1c-11.6,0.4-19.1-7.3-24.8-15.1c-3.8-5.2-8.3-11.4-13.5-15.5
					c-2.6-2-8-5.5-8-5.5c3.3,1.4,6.4,3.3,9.2,5.5c7.5,5.8,18.4,14.4,28,18.4c3.3,1.4,6.8,2.3,10.3,2.6c4,0.2,8.1-0.1,12.1-0.9
					c4.4-1,8.5-3.2,11.8-6.4C313.3,252.1,315.5,250.9,322.9,243.5z"/>
				
					<linearGradient id="SVGID_5_" gradientUnits="userSpaceOnUse" x1="212.8691" y1="250.4422" x2="330.2495" y2="250.4422" gradientTransform="matrix(1 0 0 -1 0 427.89)">
					<stop  offset="0" style="stop-color:#E07541"/>
					<stop  offset="1" style="stop-color:#EEAC94"/>
				</linearGradient>
				<path class="st7" d="M330.1,182.4c-0.9,17-8.3,33.1-20.7,44.8l0,0l-0.3,0.3l-0.4,0.3c-4,3.5-8,5.7-16.4,5.4
					c-3.2-0.1-6.9-1.2-11.8-3.5c-1.8-1.1-3.8-2.4-5.9-3.5c-16.6-9.2-34.2-31-34.8-31.7l0,0l-7.4-3.2c-5.6-2.4-10.5-6.2-14.1-11.1
					c-1.2-1.6-2.2-3.5-3-5.4c-4.8-11.3-1.2-14.4-1.2-14.4s1.6-4.8,5.5-5.7s11.7-3.8,18.4,5.9c0,0,2.6,1.8,2,6.5l0.1-0.1l0.2-0.2
					l0.5-0.4c0,0,0,0,0.1-0.1l0.5-0.5l0.7-0.7c0.3-0.3,0.6-0.6,0.8-0.9c0.6-0.6,1.2-1.3,1.7-2c0.2-0.3,0.4-0.6,0.6-0.8
					c1-1.3,1.7-2.8,2.2-4.4c0.1-0.3,0.1-0.6,0.2-1s0.1-0.4,0.1-0.5c0.6-5.9,7.7-10.1,9.5-16.2c1.8-6.1,5.3-13.3,7.9-15.6
					c1.4-0.8,3-1.5,4.5-2c2-0.3,4.1-0.3,6.1,0c2.4,0.4,4.8,1.4,7.9,2c4.9,0.9,10.1,1.8,13.8,2.4c21.6,3.5,23.6-1.4,23.6-1.4
					c1.3,2.5,2.3,5,3.2,7.7C327.2,141.4,331.1,157.9,330.1,182.4z"/>
				
					<linearGradient id="SVGID_6_" gradientUnits="userSpaceOnUse" x1="175.5318" y1="114.4482" x2="436.31" y2="114.4482" gradientTransform="matrix(1 0 0 -1 0 427.89)">
					<stop  offset="0.17" style="stop-color:#395AFF"/>
					<stop  offset="1" style="stop-color:#008AFC"/>
				</linearGradient>
				<path class="st8" d="M436.3,319c-2.8,1.5-5.6,2.8-8.6,3.9c-4,1.5-8.6,2.6-12,1.9c-7.5-1.6-15.8,79.5-15.8,79.5l-143.2-5
					l-39.2-1.3l-0.9-3.8l-14.4-58.4c0,0-3.9,0.4-7.9,0.8c-3.3,0.3-6.6,0.6-8,0.5c-3.2-0.1-10.7-2.4-10.7-2.4s-0.7-31.3,2.1-42.5
					c0.6-2.5,1.3-4.8,2-6.9c1.2-3.8,2.6-7.5,4.4-11c-0.6-4.3-0.6-8.7,0-13.1c1.3-10.7,6.5-20.5,14.6-27.7c6.3-3.7,15.5-6.1,23.2-4.8
					c10.5,1.8,20.2,7.3,28.3,14.6c3.9,3.5,7.4,7.4,10.5,11.6c5.7,7.7,13.1,16.8,24.7,16.4c13-0.5,19.9-7.7,27-16.1
					c4.5-5.4,9-11.2,15.3-16.2c11-8.7,18.6-13.4,23.8-15.4c3.3-0.9,6.8-1.3,10.3-1.2c5.8,0.6,18.1,3.6,32,17.3l0.7,0.7
					c11.2,11.4,23.5,30.4,32,49.2C431,300,434.6,310.2,436.3,319z"/>
				<path class="st9" d="M263.7,174c0,0,8.8,3.1,14.9,2.8c3.4-0.1,6.8-0.6,10.1-1.4c0.5-2.3,0.7-4.6,0.7-6.9
					c-0.2-2.9-1.7-9.7-5.6-10.8s-8.8,0.5-11.7,2.3s-6.5,6.6-7.4,9.8C264.3,171.1,263.9,172.6,263.7,174z"/>
				<path class="st9" d="M305.4,176.8c0,0,0.5-8.9,2.9-12.7s6-8.6,14.5,0.6c2.9,4.2,4.2,9.2,3.7,14.3c-3.4,0.9-7,1.1-10.5,0.6
					C312.4,179,308.8,178,305.4,176.8z"/>
				<ellipse cx="284.5" cy="169.3" rx="2.5" ry="4.9"/>
				<ellipse cx="320.7" cy="171.9" rx="2.5" ry="4.9"/>
				<path class="st10" d="M264.4,146.1c0.2-0.3,6.5-11.4,14.6-10.9s12.2,9.4,12.2,9.4s-6.9-5.5-12-5.3S264.4,146.1,264.4,146.1z"/>
				<path class="st10" d="M303.8,146.1c0.2-0.3,3.1-8,11.2-7.5s9.9,10.4,9.9,10.4s-4.1-6.2-9.7-6.8
					C308.5,141.5,303.8,146.1,303.8,146.1z"/>
				<path class="st11" d="M301.5,175c0,0,5.1,10.6,4.9,13.8s-8,3-8,3c2.9,1.3,6.3,0.9,8.9-1C311,187.7,301.5,175,301.5,175z"/>
				<path class="st11" d="M285.4,208.8l7.3-3.4c4.9-2.3,10.7-1.7,15,1.6l2.3,1.8l-1.1-0.3c-2.8-1.3-5.8-2-8.9-2.1
					c-2.5,0-5,0.2-7.4,0.6L285.4,208.8z"/>
				<path class="st6" d="M221.9,229c-7.7-1.3-16.9,1.1-23.2,4.8c-8.1,7.1-13.3,17-14.6,27.7c-0.4,2.8-1.9,6.7-2.8,11.2
					c-1.6,7.6-2.7,16.3-3.6,19.7c-2.8,11.2-2.1,42.5-2.1,42.5s7.5,2.2,10.7,2.4h1c-9.2-23.5-4.6-53-4.6-53s0.2-1.1,0.8-3.8
					c0.7-3.2,1.9-8.6,3.9-17c0.3-1.3,0.7-2.6,1.2-3.8c2.9-7.7,9.7-18.3,21.8-23.4c8.7-3.9,18.9-3.6,24.7-2.9
					C230.9,231.3,226.5,229.9,221.9,229z"/>
				<path class="st6" d="M232.5,341.8c-3.7-13.4-6.6-27.7-6.9-40.1v0l5.4-9.2L232.5,341.8z"/>
				<path class="st6" d="M377.1,392.2c0.1-0.2,2.7-15.5,4.3-26.9c3.2-23.6,8.3-73.1,8.3-73.1l0.3,4.2l0.2,15.3l0.1,30.5l-0.3,49.9
					L377.1,392.2z"/>
				
					<linearGradient id="SVGID_7_" gradientUnits="userSpaceOnUse" x1="136.92" y1="100.1612" x2="268.5609" y2="100.1612" gradientTransform="matrix(1 0 0 -1 0 427.89)">
					<stop  offset="0" style="stop-color:#E07541"/>
					<stop  offset="1" style="stop-color:#EEAC94"/>
				</linearGradient>
				<path class="st12" d="M251.7,392.8l-2.9-4.7c0,0-22.4-51.2-23.2-86.5s-18.5-44-26.1-45.1c-4.2-0.6-8.5,2.5-14,4.5l-1.4,0.5
					c-8.1,2.9-17,5.3-21.5,4.5c-7.1,0.8-9.5-0.2-17.4-2.7c-3.5-1.1-7.2-1.5-10.8-1.4c-2.7,0-5.3,0.6-7.7,1.6
					c-2.1,0.9-3.7,2.6-4.4,4.8c-4,12.1,30.6,16.1,37.5,16.4c4,0.1,13.1-2.3,20,0.8c1,0.4,1.9,0.9,2.7,1.6c3.7,2.8,5.2,8.6,6.3,16.9
					c1.1,7.9,3.2,20,5.6,32.7c5,26.6,11.3,56.1,11.3,56.1l11.1,1.4l36.9,4.7C252.4,395.3,251.7,392.8,251.7,392.8z"/>
				<path class="st13" d="M253.9,399h-0.4c0.1,0.2,0.1,0.5,0.2,0.7L253.9,399z"/>
				
					<linearGradient id="SVGID_8_" gradientUnits="userSpaceOnUse" x1="332.12" y1="114.4468" x2="426.5265" y2="114.4468" gradientTransform="matrix(1 0 0 -1 0 427.89)">
					<stop  offset="0" style="stop-color:#E07541"/>
					<stop  offset="1" style="stop-color:#EEAC94"/>
				</linearGradient>
				<path class="st14" d="M466.1,222.6c-8.2,2.3-13.5,9.4-29.8,10.2c-13.5,1.1-23.5-2.1-30.6-1.3c-3.5,0.4-7.9,3.8-11.4,9.1
					c-4.2,6.3-6.5,13.7-6.8,21.2c-0.2,5,2.1,20.9,2.4,38.6c0.7,39.8,0,94.3,0,94.3l0.8,10.6c3.6-0.3,7.2-0.6,10.5-1
					c21.5-2.5,32.4-16,32.4-16s-3.6-29-5.3-54.1c-0.2-3.6-0.5-7.4-0.7-11.4c-0.6-11.2-1.1-23.4-1.4-33.1c-0.4-11.1-0.6-19-0.6-19
					s-3.7-17.9,19.8-19.8c7.5-1.6,14.8-4.4,21.4-8.4c9.1-5.4,14.9-11.1,15-14.8C482.2,221.7,474.3,220.3,466.1,222.6z"/>
				<path class="st13" d="M390.7,405.4L390.7,405.4l-0.1-0.1L390.7,405.4z"/>
				<path class="st15" d="M389.9,392.1c0.1-11.3,0.6-57,0-91.6c-0.3-17.8-2.5-33.6-2.4-38.6c0.4-11.1,5.3-20.7,10.7-26
					c-3.9,8.7-5.7,25.5-3.3,60.7c2.9,42.8,4.2,74.8,4.9,95.4C396.4,392.4,394.7,392.2,389.9,392.1z"/>
				<path class="st15" d="M481.5,229.4c-1.4,3.6-6.8,8.4-14.6,13.1c-6.6,4-13.8,6.9-21.4,8.4c-12.4,1-17.3,6.5-19,11.4
					c-0.6-16.5,11.9-16.6,19.9-17.4c9.2-0.9,28.1-12.3,31.9-14.5C479.4,230,480.5,229.6,481.5,229.4z"/>
				<path class="st15" d="M211.3,393.6l-5.7-0.7c0,0-13.6-64.6-16.9-88.8c-1.1-8.3-2.7-14.1-6.3-16.9c-7.1-5.4-18.2-2.2-22.7-2.4
					c-6.9-0.3-41.4-4.2-37.4-16.4c0.2-0.5,0.4-0.9,0.6-1.4c3.6,4.1,8.8,9.2,14.2,10.8c9.5,2.8,29,2.5,40.7,1.3s14.5,18.6,14.5,18.6
					S204.8,364.3,211.3,393.6z"/>
				<path class="st16" d="M324.2,132.5c-3.5,1.4-5.2,2.1-16.5,1.6c-12.9-0.5-24.9-6.3-33.3-7.9s-10.7,7.1-10.7,7.1
					s-4.9,7.9-6.5,12.8c-1,3-4.1,4.8-6.3,5.9c-1.3,0.6-1.5,2.9-2.4,6.5c-0.8,3.4-7.5,8-8.4,8.6l0.2-0.2l0.5-0.4c0,0,0,0,0.1-0.1
					l0.5-0.5c0.2-0.2,0.5-0.4,0.7-0.7s0.6-0.6,0.8-0.9c0.6-0.6,1.2-1.3,1.7-2c0.2-0.3,0.4-0.5,0.6-0.8c1-1.3,1.7-2.8,2.2-4.4
					c0.1-0.3,0.1-0.6,0.2-1c0-0.2,0.1-0.4,0.1-0.5c0.6-5.9,7.7-10.1,9.5-16.2c1.8-6.1,5.3-13.3,7.9-15.6c1.4-0.8,3-1.5,4.5-2
					c2-0.3,4.1-0.3,6.1,0c2.4,0.4,4.8,1.4,7.9,2c4.9,0.9,10.1,1.8,13.8,2.4c21.6,3.5,23.6-1.4,23.6-1.4
					C322.3,127.3,323.3,129.9,324.2,132.5z"/>
			</g>
		</g>
		<circle class="st17" cx="475.9" cy="128.6" r="5.9"/>
		<circle class="st17" cx="31.8" cy="160.8" r="5.9"/>
		<circle class="st18" cx="393.6" cy="45.5" r="5.9"/>
		<circle class="st18" cx="193.2" cy="7.4" r="5.9"/>
		<circle class="st18" cx="84.5" cy="225.5" r="5.9"/>
		<circle class="st18" cx="196.3" cy="419.7" r="5.9"/>
		<circle class="st19" cx="58.1" cy="363.1" r="5.9"/>
		<path class="st20" d="M31.2,323.6h13.9 M38.1,316.6v13.9"/>
		<path class="st20" d="M224.4,406.8h14 M231.4,399.8v14"/>
		<path class="st20" d="M358.6,9.4h14 M365.6,2.4v14"/>
		<path class="st21" d="M490.9,372.3h13.9 M497.8,365.3v13.9"/>
		<path class="st21" d="M429.3,185.2h13.9 M436.3,178.2v13.9"/>
		<path class="st22" d="M124.7,48.5h13.9 M131.7,41.5v14"/>
		<path class="st21" d="M1.5,88.5h14 M8.5,81.5v14"/>
	</g>
</g>
</svg>
