<svg xmlns="http://www.w3.org/2000/svg" viewBox="0 0 56.69 56.69"><defs><style>.cls-1{fill:#38b6ff;}.cls-2{fill:#fff;}.cls-3{fill:none;}</style></defs><title>Ativo 8</title><g id="Camada_2" data-name="Camada 2"><g id="Camada_1-2" data-name="Camada 1"><rect class="cls-1" x="10.06" y="11.46" width="4.69" height="14.79"/><rect class="cls-1" x="19.32" y="0.04" width="4.69" height="26.21"/><rect class="cls-1" x="28.58" y="6.05" width="4.69" height="20.2"/><path class="cls-2" d="M52.87,51.65l-8.24-8.24a2.94,2.94,0,0,0-1.87-.85,1.22,1.22,0,0,1-.78-.35L36.1,36.28A18.59,18.59,0,0,0,35,11.82v7.07a14.61,14.61,0,1,1-26.69-.25V11.71A18.59,18.59,0,0,0,33.41,39l5.85,5.9a1.18,1.18,0,0,1,.35.78,3,3,0,0,0,.86,1.87l8.15,8.15a3,3,0,0,0,4.19.15A3,3,0,0,0,52.87,51.65Z"/><rect class="cls-3" width="56.69" height="56.69"/></g></g></svg>