<svg xmlns="http://www.w3.org/2000/svg" viewBox="0 0 56.69 56.69"><defs><style>.cls-1{fill:#38b6ff;}.cls-2{fill:none;}</style></defs><title>Ativo 7</title><g id="Camada_2" data-name="Camada 2"><g id="Camada_1-2" data-name="Camada 1"><path class="cls-1" d="M15,46.57H37.24l2.18,2.18H15a1.09,1.09,0,0,1,0-2.18Zm0-18.95h1l.08-.36c.09-.41.21-.82.34-1.22l.2-.6H15a1.09,1.09,0,0,0,0,2.18Zm0,7h1.65l-.2-.6c-.13-.4-.25-.81-.34-1.22L16,32.48H15a1.09,1.09,0,0,0,0,2.18ZM13.9,30.05A1.09,1.09,0,0,1,15,29h.84l0,.48c0,.21,0,.41,0,.63s0,.39,0,.59l0,.48H15A1.09,1.09,0,0,1,13.9,30.05Zm.91,0a.21.21,0,0,0,.07.14v-.28A.17.17,0,0,0,14.81,30.05ZM41.7,21.91H38.18l.52.73a12.09,12.09,0,0,1,.79,1.22l.13.24H41.7a1.1,1.1,0,0,0,0-2.19Zm-5-1.45.12.11H41.7a1.09,1.09,0,0,0,0-2.18H33.62l1.4.85A12.79,12.79,0,0,1,36.7,20.46ZM13.9,37.09A1.09,1.09,0,0,0,15,38.18H18.7l-.52-.72a13.22,13.22,0,0,1-.78-1.22L17.27,36H15A1.09,1.09,0,0,0,13.9,37.09Zm27.8-4.61h-.82l-.08.36a10.52,10.52,0,0,1-.34,1.22l-.2.6H41.7a1.09,1.09,0,0,0,0-2.18ZM13.9,44.14A1.09,1.09,0,0,0,15,45.23h20.9l-2.18-2.18H15A1.09,1.09,0,0,0,13.9,44.14Zm0-24.66A1.09,1.09,0,0,0,15,20.57h5.09l.13-.11a12.7,12.7,0,0,1,1.67-1.22l1.4-.85H15A1.09,1.09,0,0,0,13.9,19.48Zm0,3.53A1.09,1.09,0,0,0,15,24.1h2.3l.13-.24a12,12,0,0,1,.78-1.22l.53-.73H15A1.09,1.09,0,0,0,13.9,23ZM41.7,29h-.63l0,.48c0,.21,0,.41,0,.63s0,.39,0,.59l0,.48h.63a1.09,1.09,0,0,0,0-2.18ZM13.9,40.62A1.09,1.09,0,0,0,15,41.71h8.22l-1.37-.85a14,14,0,0,1-1.67-1.22L20,39.52H15A1.09,1.09,0,0,0,13.9,40.62ZM41.7,25.44H40.25l.2.6c.14.4.25.81.35,1.22l.08.36h.82a1.09,1.09,0,0,0,0-2.18ZM28.54,24.07a3.31,3.31,0,0,0-3.3,2.33.93.93,0,0,0,.88,1.23h.23a.94.94,0,0,0,.88-.65,1.27,1.27,0,0,1,.3-.47,1.31,1.31,0,0,1,1-.38,1.39,1.39,0,0,1,1.05.41,1.42,1.42,0,0,1,.41,1,1.4,1.4,0,0,1-.22.81,6.07,6.07,0,0,1-1,.94,3.45,3.45,0,0,0-1.1,1.41,4.24,4.24,0,0,0-.25,1.12.93.93,0,0,0,.93,1h.22a1,1,0,0,0,.93-.84,2.31,2.31,0,0,1,.13-.64,2.65,2.65,0,0,1,.78-1A5.57,5.57,0,0,0,31.71,29a3,3,0,0,0,.35-1.46,3.36,3.36,0,0,0-3.52-3.51Zm-.07,10.57h0a1,1,0,1,0,0,2.06h0a1,1,0,1,0,0-2.06ZM47.22,15h0V53.34a3.33,3.33,0,0,1-3.33,3.33H12.8a3.34,3.34,0,0,1-3.33-3.33v-50A3.34,3.34,0,0,1,12.8,0H32ZM33.05,4.24V13.5a.33.33,0,0,0,.33.33h9.38Zm3,34.44,1.27,1.26,1-1L37,37.7Zm2-8.61a9.63,9.63,0,1,0-9.63,9.62A9.64,9.64,0,0,0,38.08,30.07Zm-.78,13,7.63,7.63V42.49L41.41,39a.36.36,0,0,0-.27-.12.39.39,0,0,0-.28.12h0L37.3,42.53h0A.39.39,0,0,0,37.3,43.08Zm7.63-27H33.38a2.63,2.63,0,0,1-2.62-2.62V2.31H12.8a1,1,0,0,0-1,1v50a1,1,0,0,0,1,1H43.89a1,1,0,0,0,1-1v0L36,44.37a2.2,2.2,0,0,1,0-3.13l-1.48-1.48a11.43,11.43,0,1,1,3.58-3.55l1.46,1.46a2.22,2.22,0,0,1,3.13,0l2.23,2.23Z"/><rect class="cls-2" width="56.69" height="56.69"/></g></g></svg>